<svg width="40" height="40" viewBox="0 0 40 40" fill="none" xmlns="http://www.w3.org/2000/svg">
<path d="M0.764063 35.5469C-0.254688 36.5656 -0.254688 38.2171 0.764063 39.2359C1.78281 40.2547 3.43457 40.2547 4.45332 39.2359L0.764063 35.5469ZM21.8446 21.8446C22.8633 20.8258 22.8633 19.1743 21.8446 18.1555C20.8258 17.1367 19.1743 17.1367 18.1555 18.1555L21.8446 21.8446ZM18.1555 18.1555C17.1367 19.1743 17.1367 20.8258 18.1555 21.8446C19.1743 22.8633 20.8258 22.8633 21.8446 21.8446L18.1555 18.1555ZM39.2359 4.45332C40.2547 3.43457 40.2547 1.78281 39.2359 0.764063C38.2171 -0.254688 36.5656 -0.254688 35.5469 0.764063L39.2359 4.45332ZM21.8446 18.1555C20.8258 17.1367 19.1743 17.1367 18.1555 18.1555C17.1367 19.1743 17.1367 20.8258 18.1555 21.8446L21.8446 18.1555ZM35.5469 39.2359C36.5656 40.2547 38.2171 40.2547 39.2359 39.2359C40.2547 38.2171 40.2547 36.5656 39.2359 35.5469L35.5469 39.2359ZM18.1555 21.8446C19.1743 22.8633 20.8258 22.8633 21.8446 21.8446C22.8633 20.8258 22.8633 19.1743 21.8446 18.1555L18.1555 21.8446ZM4.45332 0.764063C3.43457 -0.254688 1.78281 -0.254688 0.764063 0.764063C-0.254688 1.78281 -0.254688 3.43457 0.764063 4.45332L4.45332 0.764063ZM4.45332 39.2359L21.8446 21.8446L18.1555 18.1555L0.764063 35.5469L4.45332 39.2359ZM21.8446 21.8446L39.2359 4.45332L35.5469 0.764063L18.1555 18.1555L21.8446 21.8446ZM18.1555 21.8446L35.5469 39.2359L39.2359 35.5469L21.8446 18.1555L18.1555 21.8446ZM21.8446 18.1555L4.45332 0.764063L0.764063 4.45332L18.1555 21.8446L21.8446 18.1555Z" fill="white"/>
</svg>
