<svg width="16" height="16" viewBox="0 0 16 16" fill="none" xmlns="http://www.w3.org/2000/svg">
<path d="M4.64423 0C2.08654 0 0 2.08654 0 4.64423V11.3558C0 13.9135 2.08654 16 4.64423 16H11.3558C13.9135 16 16 13.9135 16 11.3558V4.64423C16 2.08654 13.9135 0 11.3558 0H4.64423ZM4.64423 1.23077H11.3558C13.2476 1.23077 14.7692 2.75 14.7692 4.64423V11.3558C14.7692 13.2476 13.25 14.7692 11.3558 14.7692H4.64423C2.7524 14.7692 1.23077 13.25 1.23077 11.3558V4.64423C1.23077 2.7524 2.75 1.23077 4.64423 1.23077ZM12.6154 2.46154C12.1058 2.46154 11.6923 2.875 11.6923 3.38462C11.6923 3.89423 12.1058 4.30769 12.6154 4.30769C13.125 4.30769 13.5385 3.89423 13.5385 3.38462C13.5385 2.875 13.125 2.46154 12.6154 2.46154ZM8 3.69231C5.6274 3.69231 3.69231 5.6274 3.69231 8C3.69231 10.3726 5.6274 12.3077 8 12.3077C10.3726 12.3077 12.3077 10.3726 12.3077 8C12.3077 5.6274 10.3726 3.69231 8 3.69231ZM8 4.92308C9.70673 4.92308 11.0769 6.29327 11.0769 8C11.0769 9.70673 9.70673 11.0769 8 11.0769C6.29327 11.0769 4.92308 9.70673 4.92308 8C4.92308 6.29327 6.29327 4.92308 8 4.92308Z" fill="white"/>
</svg>
